<svg xmlns="http://www.w3.org/2000/svg" viewBox="0 0 50 50"><defs><style>.cls-1{fill:none;}</style></defs><title>send-outline</title><g id="Layer_2" data-name="Layer 2"><g id="Layer_1-2" data-name="Layer 1"><rect class="cls-1" width="50" height="50"/><path class="cls-1" d="M3.87,48.07a3.09,3.09,0,0,0,3.07.1L46,27.78a3.14,3.14,0,0,0,0-5.56L6.94,1.83A3.13,3.13,0,0,0,2.36,4.61v16L25.73,25,2.36,29.82V45.39A3.09,3.09,0,0,0,3.87,48.07Z"/><path d="M46.64,20.92,7.62.53A4.6,4.6,0,0,0,.89,4.61V21.82L18.15,25,.89,28.63V45.39a4.59,4.59,0,0,0,6.73,4.08l39-20.39a4.6,4.6,0,0,0,0-8.16ZM2.36,29.82,25.73,25,2.36,20.6v-16A3.13,3.13,0,0,1,6.94,1.83L46,22.22a3.14,3.14,0,0,1,0,5.56l-39,20.39a3.13,3.13,0,0,1-4.58-2.78Z"/></g></g></svg>